<?xml version="1.0" encoding="utf-8"?>
<!-- Generator: Adobe Illustrator 22.1.0, SVG Export Plug-In . SVG Version: 6.00 Build 0)  -->
<svg version="1.1" id="Слой_1" xmlns="http://www.w3.org/2000/svg" xmlns:xlink="http://www.w3.org/1999/xlink" x="0px" y="0px"
	 viewBox="0 0 18 1045" style="enable-background:new 0 0 18 1045;" xml:space="preserve">
<style type="text/css">
	.st0{filter:url(#Adobe_OpacityMaskFilter);}
	.st1{fill:#FFFFFF;}
	.st2{mask:url(#b_1_);}
	.st3{fill:#CC1731;}
</style>
<g>
	<defs>
		<filter id="Adobe_OpacityMaskFilter" filterUnits="userSpaceOnUse" x="0" y="0" width="18" height="1045">
			<feColorMatrix  type="matrix" values="1 0 0 0 0  0 1 0 0 0  0 0 1 0 0  0 0 0 1 0"/>
		</filter>
	</defs>
	<mask maskUnits="userSpaceOnUse" x="0" y="0" width="18" height="1045" id="b_1_">
		<g class="st0">
			<path id="a_1_" class="st1" d="M0,0h18v1045H0V0z"/>
		</g>
	</mask>
	<g class="st2">
		<path class="st3" d="M3.3,908.7c-3.1-3.1-3.1-8.2,0-11.3s8.2-3.1,11.3,0s3.1,8.2,0,11.3S6.5,911.8,3.3,908.7z M6.9,905.1
			c1.4,1.4,1.9,2.3,1.9,2.3c0.3,0.5,0.8,0.5,1.1,0c0,0,1.9-1.7-0.9-4.5s-4.5-0.9-4.5-0.9c-0.5,0.3-0.4,0.8,0,1.1
			C4.5,903.2,5.5,903.7,6.9,905.1L6.9,905.1z M10.6,903.2c0.3,0.5,1.1,0.4,1.8,0s1-1.2,0.7-1.7c-0.3-0.5-1.1-0.4-1.8,0
			S10.3,902.7,10.6,903.2z M11.4,905.4c0.2,0.4,0.7,0.4,1.3,0.2c0.5-0.2,0.8-0.7,0.7-1.1s-0.7-0.4-1.3-0.2
			C11.5,904.6,11.2,905.1,11.4,905.4z M6.6,900.6c0.4,0.2,0.8-0.1,1.1-0.7c0.2-0.5,0.2-1.1-0.2-1.3s-0.8,0.1-1.1,0.7
			C6.1,899.8,6.2,900.4,6.6,900.6z M8.8,901.4c0.5,0.3,1.2,0,1.7-0.7s0.5-1.5,0-1.8s-1.2,0-1.7,0.7S8.4,901.1,8.8,901.4z M9,867
			c3.4,0,6.5,2.2,7.6,5.4c1.1,3.3,0,6.9-2.7,8.9c-0.7,0.5-1.4,0.9-2.3,1.2c-0.8,0.3-1.7,0.4-2.6,0.4h0c-1.2,0-2.4-0.3-3.5-0.8
			c-1.9-0.9-3.4-2.6-4-4.6c-1.1-3.3,0-6.9,2.7-8.9c0.7-0.5,1.4-0.9,2.3-1.2C7.3,867.1,8.1,867,9,867z M9.8,868.8
			c-3.3,2.5-3.5,5.3-3.5,6.1l0,0.2l0.2,0.1c0.4,0.1,0.8,0.2,1.2,0.2c0.3,0,0.7-0.1,0.9-0.2l0.2-0.1l0-0.2c0.1-1.1,0.6-3.4,3.2-5.5
			l0.3-0.3l-0.4-0.2c-0.5-0.2-1-0.4-1.6-0.5l-0.1,0l-0.1,0.1C10,868.6,9.9,868.7,9.8,868.8z M2.9,872.4l-0.1,0.2l0.1,0.1
			c0.4,0.4,1.1,1,1.8,1.5l0.4,0.2l0.1-0.4c0.2-1.3,0.8-3.2,2.6-5.1l0.6-0.6l-0.9,0.2c-0.2,0.1-0.4,0.1-0.6,0.2
			c-0.7,0.2-1.3,0.6-1.9,1C4,870.4,3.3,871.3,2.9,872.4L2.9,872.4z M2.6,876.9L2.6,876.9c2,1.2,3.7,1.7,5.3,1.7c0,0,0.1,0,0.1,0
			c1.4,0,2.4-0.5,2.9-0.8l0.3-0.2l-0.2-0.2c-0.5-0.4-1-0.8-1.6-1.2l-0.1-0.1l-0.1,0.1c-0.5,0.2-1,0.3-1.6,0.3c-2,0-3.9-1.4-4.9-2.3
			l-0.4-0.3l0,0.5C2.3,875.2,2.4,876,2.6,876.9C2.6,876.8,2.6,876.9,2.6,876.9z M12.7,880.5l0.2-0.1l-0.1-0.2
			c-0.2-0.5-0.4-1-0.7-1.4l-0.1-0.2l-0.2,0.2c-0.8,0.5-2,1.1-3.8,1.1c-1.1,0-2.3-0.2-3.5-0.7l-1.1-0.4l0.8,0.8
			c0.6,0.6,1.2,1.1,1.9,1.4c0.9,0.5,1.9,0.7,2.9,0.7c0.7,0,1.5-0.1,2.2-0.4C11.7,881.1,12.2,880.9,12.7,880.5L12.7,880.5z
			 M15.2,877.5l0-0.1l0-0.1c-1.3-2.9-3.2-4.1-4.3-4.5l-0.2-0.1l-0.1,0.2c-0.5,0.9-0.6,1.6-0.6,2l0,0.2l0.1,0.1
			c2.1,1.2,3.1,2.8,3.6,4l0.2,0.4l0.3-0.3C14.6,878.7,14.9,878.1,15.2,877.5z M15.2,874.8l0.5,0.7l0-0.9c0-0.6-0.1-1.2-0.3-1.8
			c-0.4-1.1-1-2.1-1.9-2.8l-0.2-0.1l-0.2,0.1c-0.6,0.4-1.1,0.9-1.5,1.4l-0.2,0.3l0.3,0.1C12.7,872.2,14,873.1,15.2,874.8z M9.9,851
			L9,850.1L8.1,851c-1.4,1.3-3.6,1.3-4.9,0c-1.5-1.5-1.5-3.9,0-5.4l5.2-5c0.4-0.4,1-0.4,1.4,0l5.2,5c1.5,1.5,1.5,3.9,0,5.4
			C13.5,852.3,11.3,852.3,9.9,851z M7,855l2-4l2,4c0,0-1,0.5-2,0.5S7,855,7,855z M11.8,818.1c1.7-5.8-3.3-8-3.3-8
			c-0.3,2.9-2,3.5-3.8,5c-3,2.5-2.7,5-2.7,5c-0.2,3.8,4.9,5.5,4.9,5.5c-2.3-4,1.1-6,1.1-6c-0.1,5.2,4.2,6.5,4.2,6.5
			c7.1-3.6,2.1-11.2,2.1-11.2C14.1,817.5,11.8,818.1,11.8,818.1z M3.5,765c-0.3,0-0.5-0.2-0.5-0.5l-0.4-6.6c0-0.1,0-0.2,0.1-0.3
			c0.1-0.1,0.4-0.1,0.5,0l3.3,3.3l2.2-4.4c0-0.1,0.1-0.1,0.2-0.2c0.2-0.1,0.4,0,0.5,0.2l2.2,4.4l3.3-3.3c0.1-0.1,0.2-0.1,0.3-0.1
			c0.2,0,0.3,0.2,0.3,0.4l-0.4,6.6c0,0.3-0.2,0.5-0.5,0.5H3.5z M3.6,766h10.7c0.2,0,0.3,0,0.4,0.1c0.1,0,0.1,0.1,0.2,0.2
			s0.1,0.2,0.1,0.4v0.7c0,0.2,0,0.3-0.1,0.4s-0.1,0.1-0.2,0.2s-0.2,0.1-0.4,0.1H3.6c-0.2,0-0.3,0-0.4-0.1c-0.1,0-0.1-0.1-0.2-0.2
			c0-0.1-0.1-0.2-0.1-0.4v-0.7c0-0.2,0-0.3,0.1-0.4s0.1-0.1,0.2-0.2C3.3,766,3.4,766,3.6,766z M16.7,791l0,0.1
			c0.5,0.6,0.8,1.4,0.8,2.1c0,0.9-0.3,1.7-1,2.3v1.8c0,0.4-0.3,0.7-0.7,0.7h-1.6c-0.4,0-0.7-0.3-0.7-0.7V796h-9v1.3
			c0,0.4-0.3,0.7-0.7,0.7H2.2c-0.4,0-0.7-0.3-0.7-0.7c0,0,0-1.8,0-1.8c-0.6-0.6-1-1.4-1-2.3c0-0.7,0.2-1.5,0.7-2.1l0.1-0.1
			c-0.8-0.1-1.3-0.5-1.3-1c0-0.5,0.6-1,1.4-1c0.2,0,0.4,0.1,0.7,0.1l0.1-0.3c0.4-1.2,1-2.3,1.6-2.7c2.2-1.5,8.1-1.5,10.3,0
			c0.6,0.4,1.2,1.6,1.6,2.7l0.1,0.3c0.2-0.1,0.5-0.1,0.7-0.1c0.8,0,1.4,0.4,1.4,1C18,790.5,17.5,790.9,16.7,791z M4.6,787.5
			c-0.3,0.3-0.8,1.3-1.2,2.5h11.2c-0.4-1.2-0.9-2.3-1.2-2.5C11.7,786.2,6.4,786.2,4.6,787.5z M3.6,792c-0.8,0-1.4,0.4-1.4,1
			s0.5,1,1.5,1c0.5,0,2,0.1,2-0.1C5.7,792.7,4.4,792,3.6,792z M14.4,792c-0.8,0-2.1,0.7-2.1,1.9c0,0.2,1.5,0.1,2,0.1
			c0.9,0,1.5-0.4,1.5-1C15.8,792.4,15.2,792,14.4,792z M3,700H7c0.3,0,0.5,0,0.6,0.1c0.1,0.1,0.2,0.2,0.3,0.3C8,700.5,8,700.6,8,701
			v4.1c0,0.3,0,0.5-0.1,0.6s-0.2,0.2-0.3,0.3C7.5,706,7.4,706,7,706H3c-0.3,0-0.5,0-0.6-0.1s-0.2-0.2-0.3-0.3C2,705.5,2,705.4,2,705
			V701c0-0.3,0-0.5,0.1-0.6s0.2-0.2,0.3-0.3C2.5,700,2.6,700,3,700z M3,708H7c0.3,0,0.5,0,0.6,0.1c0.1,0.1,0.2,0.2,0.3,0.3
			C8,708.5,8,708.6,8,709v4.1c0,0.3,0,0.5-0.1,0.6s-0.2,0.2-0.3,0.3C7.5,714,7.4,714,7,714H3c-0.3,0-0.5,0-0.6-0.1s-0.2-0.2-0.3-0.3
			C2,713.5,2,713.4,2,713V709c0-0.3,0-0.5,0.1-0.6s0.2-0.2,0.3-0.3C2.5,708,2.6,708,3,708z M11,708H15c0.3,0,0.5,0,0.6,0.1
			s0.2,0.2,0.3,0.3s0.1,0.2,0.1,0.6v4.1c0,0.3,0,0.5-0.1,0.6s-0.2,0.2-0.3,0.3c-0.1,0.1-0.2,0.1-0.6,0.1H11c-0.3,0-0.5,0-0.6-0.1
			s-0.2-0.2-0.3-0.3c-0.1-0.1-0.1-0.2-0.1-0.6V709c0-0.3,0-0.5,0.1-0.6s0.2-0.2,0.3-0.3C10.5,708,10.6,708,11,708z M13.7,699.4
			l2.9,2.9c0.2,0.2,0.3,0.3,0.3,0.5s0,0.3,0,0.4s-0.1,0.2-0.3,0.5l-2.9,2.9c-0.2,0.2-0.3,0.3-0.5,0.3s-0.3,0-0.4,0s-0.2-0.1-0.5-0.3
			l-2.9-2.9c-0.2-0.2-0.3-0.3-0.3-0.5s0-0.3,0-0.4s0.1-0.2,0.3-0.5l2.9-2.9c0.2-0.2,0.3-0.3,0.5-0.3s0.3,0,0.4,0
			S13.4,699.2,13.7,699.4z M8,741.9c-3.1-0.4-5.5-2.9-5.9-5.9H1c-0.6,0-1-0.4-1-1s0.4-1,1-1h1.1c0.4-3.1,2.9-5.5,5.9-5.9V727
			c0-0.6,0.4-1,1-1s1,0.4,1,1v1.1c3.1,0.4,5.5,2.9,5.9,5.9H17c0.6,0,1,0.4,1,1s-0.4,1-1,1h-1.1c-0.4,3.1-2.9,5.5-5.9,5.9v1.1
			c0,0.6-0.4,1-1,1s-1-0.4-1-1V741.9z M9,740c2.8,0,5-2.2,5-5s-2.2-5-5-5s-5,2.2-5,5S6.2,740,9,740z M9,737c-1.1,0-2-0.9-2-2
			s0.9-2,2-2s2,0.9,2,2S10.1,737,9,737z M10.7,675.9c0,2,2,3,3.8,7c0.6,1.3,2,3.1-5.5,3.1s-6.1-1.8-5.5-3.1c1.8-4,3.8-5,3.8-7v-2.3
			H6.9c-0.2,0-0.4-0.2-0.4-0.4v-0.8c0-0.2,0.2-0.4,0.4-0.4h4.3c0.2,0,0.4,0.2,0.4,0.4v0.8c0,0.2-0.2,0.4-0.4,0.4h-0.4V675.9z
			 M12.4,684c0.2,0,0.2-0.2,0.2-0.4c-0.2-0.4-0.5-1.2-1-2c-0.5-0.7-0.1,0.3-1.3,0.3s-2.6-2.4-3.9-0.3c-0.6,0.8-0.9,1.6-1,2
			c-0.1,0.2,0,0.4,0.2,0.4c0.5,0.1,1.5,0.3,3.4,0.3S11.9,684.1,12.4,684L12.4,684z M14.8,625.4c-0.7,1.2-3,2-5.8,2s-5-0.9-5.8-2
			c-0.2-0.2-0.2-0.1-0.2,0v1.7c0,1.7,2.7,3.4,6,3.4s6-1.7,6-3.4v-1.7C15,625.3,14.9,625.2,14.8,625.4z M14.8,621.1
			c-0.7,1-3,1.8-5.8,1.8s-5.1-0.8-5.8-1.8c-0.1-0.2-0.2-0.1-0.2,0v2c0,1.5,2.7,2.7,6,2.7s6-1.2,6-2.7v-2
			C15,621,14.9,620.8,14.8,621.1z M9,615.5c-3.3,0-6,1-6,2.2v1.1c0,1.3,2.7,2.4,6,2.4s6-1.1,6-2.4v-1.1C15,616.5,12.3,615.5,9,615.5
			z"/>
		<path class="st3" d="M14.8,624.9c-0.7,1.2-3,2-5.8,2s-5-0.9-5.8-2c-0.2-0.2-0.2-0.1-0.2,0v1.7c0,1.7,2.7,3.4,6,3.4s6-1.7,6-3.4
			v-1.7C15,624.8,14.9,624.7,14.8,624.9z M14.8,620.6c-0.7,1-3,1.8-5.8,1.8s-5.1-0.8-5.8-1.8c-0.1-0.2-0.2-0.1-0.2,0v2
			c0,1.5,2.7,2.7,6,2.7s6-1.2,6-2.7v-2C15,620.5,14.9,620.3,14.8,620.6z M9,615c-3.3,0-6,1-6,2.2v1.1c0,1.3,2.7,2.4,6,2.4
			s6-1.1,6-2.4v-1.1C15,616,12.3,615,9,615z M12.9,654c0.1,0.5,0.2,0.8,0.5,1L5,655c0.1-1.1,3.1-3,3.1-5.5C7.7,650,5.4,650.8,5,651
			c-0.1,0-1.4-0.7-1.6-1C3,649.3,3,649.3,3,649.1c0-0.3,0.3-0.4,0.5-0.5c0,0,0.9-0.5,1.6-1.5c0.3-0.8,0.6-1.4,1.8-2
			c0.5-0.2,1-0.4,1.3-0.5c0-0.2-0.3-1.1-0.5-1.6c0,0,0.9,0.1,1.6,0.5c0.6,0.3,0.9,0.9,1.1,1c0.3,0.2,0.8,0,2.1,1c2.6,2,1.1,5,1.1,5
			L12.9,654z M3.6,655h10.7c0.2,0,0.3,0,0.4,0.1c0.1,0,0.1,0.1,0.2,0.2s0.1,0.2,0.1,0.4v1.7c0,0.2,0,0.3-0.1,0.4s-0.1,0.1-0.2,0.2
			s-0.2,0.1-0.4,0.1H3.6c-0.2,0-0.3,0-0.4-0.1c-0.1,0-0.1-0.1-0.2-0.2c0-0.1-0.1-0.2-0.1-0.4v-1.7c0-0.2,0-0.3,0.1-0.4
			s0.1-0.1,0.2-0.2S3.4,655,3.6,655L3.6,655z M14.8,598.1c-0.4,1.5-1.6,3.9-5.8,3.9s-5.5-2.5-5.8-3.9l-1,0.1l1.7-3.2l2.3,2.8
			l-0.9,0.1c0.3,0.8,1,1.8,2.8,2v-6.1c-1.2-0.4-2-1.5-2-2.8c0-1.7,1.3-3,3-3s3,1.3,3,3c0,1.3-0.8,2.4-2,2.8v6.1
			c1.8-0.3,2.5-1.3,2.8-2l-0.9-0.1l2.3-2.8l1.7,3.2L14.8,598.1L14.8,598.1z M9,592c0.6,0,1-0.4,1-1s-0.4-1-1-1s-1,0.4-1,1
			S8.4,592,9,592z M1.3,561.8c0-0.5,0.4-1,0.9-1.1l9-0.8c0.5,0,1,0.4,1.1,0.9l0.8,9c0,0.5-0.4,1-0.9,1.1l-9,0.8
			c-0.5,0-1-0.4-1.1-0.9C2,570.8,1.3,561.8,1.3,561.8z M4,564c0.6,0,1-0.4,1-1s-0.4-1-1-1s-1,0.4-1,1S3.4,564,4,564z M7,567
			c0.6,0,1-0.4,1-1s-0.4-1-1-1s-1,0.4-1,1S6.4,567,7,567z M10,569c0.6,0,1-0.4,1-1s-0.4-1-1-1s-1,0.4-1,1S9.4,569,10,569z
			 M13.9,564.8l2.2,0.2c0.5,0,1,0.5,0.9,1.1l-0.8,9c0,0.5-0.5,1-1.1,0.9l-9-0.8c-0.5,0-1-0.5-0.9-1.1l0.1-1l8.2-0.7
			c0.5,0,1-0.5,0.9-1.1C14.5,571.3,13.9,564.8,13.9,564.8z M1,542.5c0-0.3,0.2-0.5,0.5-0.5h3c0.3,0,0.5,0.2,0.5,0.5v3
			c0,0.3-0.2,0.5-0.5,0.5h-3c-0.3,0-0.5-0.2-0.5-0.5V542.5z M6,542.5c0-0.3,0.2-0.5,0.5-0.5h3c0.3,0,0.5,0.2,0.5,0.5v3
			c0,0.3-0.2,0.5-0.5,0.5h-3c-0.3,0-0.5-0.2-0.5-0.5V542.5z M11,542.5c0-0.3,0.2-0.5,0.5-0.5h3c0.3,0,0.5,0.2,0.5,0.5v3
			c0,0.3-0.2,0.5-0.5,0.5h-3c-0.3,0-0.5-0.2-0.5-0.5V542.5z M6,537.5c0-0.3,0.2-0.5,0.5-0.5h3c0.3,0,0.5,0.2,0.5,0.5v3
			c0,0.3-0.2,0.5-0.5,0.5h-3c-0.3,0-0.5-0.2-0.5-0.5V537.5z M11.5,533.4c-0.2-0.2-0.2-0.5,0-0.7l2.1-2.1c0.2-0.2,0.5-0.2,0.7,0
			l2.1,2.1c0.2,0.2,0.2,0.5,0,0.7l-2.1,2.1c-0.2,0.2-0.5,0.2-0.7,0L11.5,533.4z M1,537.5c0-0.3,0.2-0.5,0.5-0.5h3
			c0.3,0,0.5,0.2,0.5,0.5v3c0,0.3-0.2,0.5-0.5,0.5h-3c-0.3,0-0.5-0.2-0.5-0.5V537.5z M1,532.5c0-0.3,0.2-0.5,0.5-0.5h3
			c0.3,0,0.5,0.2,0.5,0.5v3c0,0.3-0.2,0.5-0.5,0.5h-3c-0.3,0-0.5-0.2-0.5-0.5V532.5z M6,533.2c-0.1-0.2-0.1-0.5,0.2-0.7l2.6-1.5
			c0.2-0.1,0.5-0.1,0.7,0.2l1.5,2.6c0.1,0.2,0.1,0.5-0.2,0.7L8.2,536c-0.2,0.1-0.5,0.1-0.7-0.2C7.6,535.8,6,533.2,6,533.2z
			 M12.5,536.1c0.1-0.2,0.4-0.3,0.7-0.2l2.6,1.5c0.2,0.1,0.3,0.4,0.2,0.7l-1.5,2.6c-0.1,0.2-0.4,0.3-0.7,0.2l-2.6-1.5
			c-0.2-0.1-0.3-0.4-0.2-0.7L12.5,536.1z M5,392v4l1.5-2l1.5,2v-4h5.5c0.8,0,1.5,0.7,1.5,1.5V404H4.5c-0.3,0-0.5,0.2-0.5,0.5
			c0,0.3,0.2,0.5,0.5,0.5H15v0.5c0,0.3-0.2,0.5-0.5,0.5h-10c-0.8,0-1.5-0.7-1.5-1.5v-11c0-0.8,0.7-1.5,1.5-1.5L5,392L5,392z M9,420
			H10c0.3,0,0.5,0,0.6,0.1s0.2,0.2,0.3,0.3s0.1,0.2,0.1,0.6V432c0,0.3,0,0.5-0.1,0.6c-0.1,0.1-0.2,0.2-0.3,0.3
			c-0.1,0.1-0.2,0.1-0.6,0.1H9c-0.3,0-0.5,0-0.6-0.1s-0.2-0.2-0.3-0.3C8,432.5,8,432.4,8,432V421c0-0.3,0-0.5,0.1-0.6
			s0.2-0.2,0.3-0.3S8.6,420,9,420z M4,427H5c0.3,0,0.5,0,0.6,0.1s0.2,0.2,0.3,0.3c0.1,0.1,0.1,0.2,0.1,0.6v4.1c0,0.3,0,0.5-0.1,0.6
			s-0.2,0.2-0.3,0.3S5.4,433,5,433H4c-0.3,0-0.5,0-0.6-0.1s-0.2-0.2-0.3-0.3C3,432.5,3,432.4,3,432v-4.1c0-0.3,0-0.5,0.1-0.6
			s0.2-0.2,0.3-0.3S3.6,427,4,427z M14,423H15c0.3,0,0.5,0,0.6,0.1s0.2,0.2,0.3,0.3s0.1,0.2,0.1,0.6v8.1c0,0.3,0,0.5-0.1,0.6
			c-0.1,0.1-0.2,0.2-0.3,0.3c-0.1,0.1-0.2,0.1-0.6,0.1H14c-0.3,0-0.5,0-0.6-0.1s-0.2-0.2-0.3-0.3c-0.1-0.1-0.1-0.2-0.1-0.6V424
			c0-0.3,0-0.5,0.1-0.6c0.1-0.1,0.2-0.2,0.3-0.3C13.5,423,13.6,423,14,423z M10.8,513c0.4,3.5-0.3,3.3-4,4.9c-0.7,0.3-1-0.2-0.8-0.7
			c0.2-0.5,0.6-1.7,0.6-1.7l-2.1-2.1c0,0-1.2,0.4-1.7,0.6c-0.5,0.2-1,0-0.7-0.8c1.6-3.8,1.3-4.4,4.9-4c0,0,4.1-5.7,8.7-5.1
			c0.1,0,0.2,0,0.2,0.1c0,0,0.1,0.1,0.1,0.2C16.6,509,10.8,513,10.8,513L10.8,513z M11.7,508.3c0.5,0.5,1.3,0.5,1.8,0
			c0.5-0.5,0.5-1.3,0-1.8c-0.5-0.5-1.3-0.5-1.8,0C11.2,507.1,11.2,507.9,11.7,508.3z M8,455v1h3v-1h5v5c0,0.5-0.4,1-1,1H4
			c-0.6,0-1-0.5-1-1v-5H8z M2,451c0-0.6,0.4-1,1-1h13c0.6,0,1,0.4,1,1v3H2V451z M7,450H5.5l1-2h6l1,2H12l-0.5-1h-4L7,450z
			 M9.6,307.7l1.6,4.4h3.9c0.4,0,0.6,0.3,0.6,0.6c0,0.2-0.1,0.4-0.3,0.5l-3.2,2.4l1.2,4.5c0.1,0.3-0.1,0.7-0.5,0.8
			c-0.2,0.1-0.4,0-0.6-0.1L9,318.2l-3.4,2.6c-0.3,0.2-0.7,0.2-0.9-0.1c-0.1-0.2-0.2-0.4-0.1-0.6l1.2-4.5l-3.2-2.4
			c-0.3-0.2-0.3-0.6-0.1-0.9c0.1-0.2,0.3-0.3,0.5-0.3h3.9l1.6-4.4c0.1-0.3,0.5-0.5,0.8-0.4C9.4,307.4,9.5,307.5,9.6,307.7z M4.5,258
			c0.8,0,1.5,0.7,1.5,1.5S5.3,261,4.5,261S3,260.3,3,259.5S3.7,258,4.5,258z M9.5,258c0.8,0,1.5,0.7,1.5,1.5s-0.7,1.5-1.5,1.5
			S8,260.3,8,259.5S8.7,258,9.5,258z M14.5,258c0.8,0,1.5,0.7,1.5,1.5s-0.7,1.5-1.5,1.5s-1.5-0.7-1.5-1.5S13.7,258,14.5,258z
			 M15,346.5l-3-1.5v-6l3-1.5v0c0-0.3,0.2-0.5,0.5-0.5h0c0.3,0,0.5,0.2,0.5,0.5v9c0,0.3-0.2,0.5-0.5,0.5h0
			C15.2,347,15,346.8,15,346.5L15,346.5L15,346.5z M8.2,345l0.6,3.8c0.1,0.5-0.3,1-0.8,1.1c0,0,0,0,0,0c-0.5,0.1-1-0.3-1.1-0.8
			l-0.7-4H5c-1.7,0-3-1.3-3-3c0-1.7,1.3-3,3-3h6v6H8.2z M10,284.5V280l5,5h-4.5C10.2,285,10,284.8,10,284.5z M4.3,280H9v4.7
			c0,0.4,0,0.6,0.1,0.8s0.2,0.3,0.4,0.4s0.3,0.1,0.8,0.1H15v6.7c0,0.4,0,0.6-0.1,0.8c-0.1,0.2-0.2,0.3-0.4,0.4s-0.3,0.1-0.8,0.1H4.3
			c-0.4,0-0.6,0-0.8-0.1s-0.3-0.2-0.4-0.4C3,293.3,3,293.2,3,292.7v-11.4c0-0.4,0-0.6,0.1-0.8c0.1-0.2,0.2-0.3,0.4-0.4
			S3.8,280,4.3,280L4.3,280z M15.5,142.1c0.9,0,1.6,0.8,1.5,1.6v7.6c0,0.9-0.7,1.6-1.6,1.6H2.6c-0.9,0-1.6-0.8-1.6-1.6v-7.4
			c0-0.9,0.7-1.9,1.6-1.9H4c0.3,0,0.5-0.2,0.6-0.4l0.5-1.2c0.1-0.2,0.4-0.4,0.6-0.4h6.5c0.3,0,0.5,0.2,0.6,0.4l0.5,1.2
			c0.1,0.2,0.4,0.4,0.6,0.4C14.1,142.1,15.5,142.1,15.5,142.1z M9,151c2.2,0,4-1.8,4-4s-1.8-4-4-4s-4,1.8-4,4S6.8,151,9,151z
			 M9,144.5c1.4,0,2.5,1.1,2.5,2.5s-1.1,2.5-2.5,2.5s-2.5-1.1-2.5-2.5S7.6,144.5,9,144.5z M13,176.8V171l-6,2v7.5c0,0,0,0-0.1,0
			c0.1,0.9-0.6,1.9-1.8,2.3c-1.3,0.5-2.6,0.1-3-0.9s0.4-2.2,1.7-2.6c0.4-0.1,0.8-0.2,1.2-0.2c0,0,0,0,0-0.1v-9l10-3v11.5
			c0,0,0,0-0.1,0c0,0.8-0.7,1.7-1.7,2.1c-1.3,0.5-2.6,0.2-3-0.8c-0.4-1,0.3-2.2,1.6-2.7C12.2,176.9,12.6,176.8,13,176.8L13,176.8z
			 M12,210H6v-2H4v2H3c-0.6,0-1-0.4-1-1v-12c0-0.6,0.4-1,1-1h1v2h2v-2h6v2h2v-2h1c0.6,0,1,0.4,1,1v12c0,0.6-0.4,1-1,1h-1v-2h-2V210z
			 M6,202v-2H4v2H6z M14,202v-2h-2v2H14z M6,206v-2H4v2H6z M14,206v-2h-2v2H14z M16.8,232.3c0.1,0.4,1,4.5-1.6,4.7
			c-1.1,0.1-2.3-1.6-3.2-2.5c-0.8-1-1.7-1.5-3.1-1.5s-2.2,0.5-3.1,1.5c-0.9,0.9-2.1,2.6-3.1,2.5c-2.5-0.1-1.6-4.3-1.5-4.7
			C1.6,230,3,226,5.8,226c0,0,0.9,0.1,1.6,0.5c1.2,0.5,1.8,0.5,3.1,0c0.8-0.4,1.6-0.5,1.6-0.5C15,226,16.3,229.9,16.8,232.3z
			 M11,230.5c0,0.3,0.2,0.5,0.5,0.5c0.3,0,0.5-0.2,0.5-0.5c0-0.3-0.2-0.5-0.5-0.5C11.2,230,11,230.2,11,230.5z M13,230.5
			c0,0.3,0.2,0.5,0.5,0.5c0.3,0,0.5-0.2,0.5-0.5c0-0.3-0.2-0.5-0.5-0.5C13.2,230,13,230.2,13,230.5z M6,230v-0.5
			c0-0.3-0.2-0.5-0.5-0.5c-0.3,0-0.5,0.2-0.5,0.5v0.5H4.5c-0.3,0-0.5,0.2-0.5,0.5s0.2,0.5,0.5,0.5H5v0.5c0,0.3,0.2,0.5,0.5,0.5
			c0.3,0,0.5-0.2,0.5-0.5V231h0.5c0.3,0,0.5-0.2,0.5-0.5S6.8,230,6.5,230H6z M9,92c5.4,0,6,2.7,6,4.1c0,0.7-0.2,0.9-1.7,0.9H4.8
			C3.4,97,3,96.8,3,96.1C3,94.6,3.6,92,9,92z M9,91c-1.7,0-3-1.2-3-3.5S7.3,84,9,84s3,1.2,3,3.5S10.7,91,9,91z M1,123.1
			c0-1.5,0-4.1,5-4.1s5,2.7,5,4.1c0,0.7-0.2,0.9-1.4,0.9H2.5C1.3,124,1,123.8,1,123.1z M12.6,124c0-0.1,0-0.2,0-0.3
			c0-1.4,0-3.3-1.5-4.7c0.3,0,0.6,0,0.9,0c4.5,0,5,2.7,5,4.1c0,0.7-0.2,0.9-1.4,0.9C15.6,124,12.6,124,12.6,124z M6,118
			c-1.1,0-2-0.8-2-2.5s0.9-2.5,2-2.5s2,0.8,2,2.5S7.1,118,6,118z M12,118c-1.1,0-2-0.8-2-2.5s0.9-2.5,2-2.5s2,0.8,2,2.5
			S13.1,118,12,118z M13.2,30.4c2.2,0.7,3.8,2.5,3.8,4.6c0,1.8-1.1,3.4-2.8,4.2c0.1,0.5,0.4,1.1,0.8,1.8c-1.6,0-2.4-0.4-2.9-1.1
			C11.8,40,11.4,40,11,40c-0.3,0-0.6,0-0.9-0.1c2.6-1,4.4-3.2,4.4-5.9C14.5,32.6,14,31.4,13.2,30.4z M5.9,38.9C5.4,39.6,4.6,40,3,40
			c0.4-0.6,0.8-1.3,0.8-1.8C2.1,37.4,1,35.8,1,34c0-2.8,2.7-5,6-5s6,2.2,6,5s-2.7,5-6,5C6.6,39,6.2,39,5.9,38.9z M9,70
			c-1.1,0-2-0.9-2-2h4C11,69.1,10.1,70,9,70z M13.8,64c0,0,1.2,0.8,1.7,1.6c1,1.3,0.3,1.4-1.2,1.4H3.6c-1.5,0-2.1-0.1-1.2-1.4
			C3,64.8,4.2,64,4.2,64v-3c0-2.6,1.2-4.5,3.7-5c0,0,0-1,1.2-1s1.2,1,1.2,1c2.2,0.5,3.7,2.4,3.7,5V64z M9.7,0.3
			c-0.4-0.4-1-0.4-1.3,0l-7.1,7C0.8,7.6,1,7.9,1.5,7.9L3,8v5c0,1,0,1,1,1h2.5C6.8,14,7,13.8,7,13.5V10c0-1.1,0.9-2,2-2
			c1.1,0,2,0.9,2,2v3.5c0,0.3,0.2,0.5,0.5,0.5H14c1,0,1,0,1-1V8l1.6-0.1c0.4-0.1,0.6-0.4,0.2-0.7L9.7,0.3z M5,937H2
			c-0.5,0-1-0.4-1-1v-9h2v6.5c0,0.3,0.2,0.5,0.5,0.5H4v-10c0-0.6,0.5-1,1-1h10c0.6,0,1,0.4,1,1v11.5c0,0.8-0.7,1.5-1.5,1.5H5z
			 M7,926.5v3c0,0.3,0.2,0.5,0.5,0.5h5c0.3,0,0.5-0.2,0.5-0.5v-3c0-0.3-0.2-0.5-0.5-0.5h-5C7.2,926,7,926.2,7,926.5z M7,931.5
			c0,0.3,0.2,0.5,0.5,0.5h5c0.3,0,0.5-0.2,0.5-0.5c0-0.3-0.2-0.5-0.5-0.5h-5C7.2,931,7,931.2,7,931.5z M7,933.5
			c0,0.3,0.2,0.5,0.5,0.5h3c0.3,0,0.5-0.2,0.5-0.5c0-0.3-0.2-0.5-0.5-0.5h-3C7.2,933,7,933.2,7,933.5z M5,953c0-2.2,1.8-4,4-4
			s4,1.8,4,4h0.7c0.4,0,0.6,0,0.8,0.1s0.3,0.2,0.4,0.4s0.1,0.3,0.1,0.8v8.4c0,0.4,0,0.6-0.1,0.8c-0.1,0.2-0.2,0.3-0.4,0.4
			s-0.3,0.1-0.8,0.1H4.3c-0.4,0-0.6,0-0.8-0.1s-0.3-0.2-0.4-0.4S3,963.2,3,962.7v-8.4c0-0.4,0-0.6,0.1-0.8s0.2-0.3,0.4-0.4
			c0.2-0.1,0.3-0.1,0.8-0.1H5z M6.3,953h5.5c0-1.5-1.2-2.8-2.8-2.8S6.3,951.5,6.3,953z M7.9,973.6c0.3-0.1,0.7-0.1,1.1-0.1
			s0.8,0,1.1,0.1l0.8-1.1c0.2-0.3,0.7-0.4,1.1-0.2c0.3,0.2,0.4,0.7,0.1,1l-0.7,0.9c0.6,0.6,0.9,1.5,1.1,2.6h-7
			c0.2-1.2,0.5-2,1.1-2.6l-0.7-0.9c-0.2-0.3-0.2-0.8,0.2-1s0.8-0.2,1.1,0.2L7.9,973.6L7.9,973.6z M4.3,979c0-0.3,0.1-0.7,0.2-1h9
			c0.1,0.3,0.1,0.6,0.2,1l0.5-0.4c0.1,0,0.1-0.1,0.1-0.2l0.4-2.6c0.1-0.4,0.5-0.7,0.9-0.6c0.4,0.1,0.7,0.5,0.6,0.9l-0.4,2.6
			c-0.1,0.5-0.4,0.9-0.8,1.2l-1.3,0.8c0,0.9-0.1,1.7-0.3,2.6l1.7,1.4c0.3,0.3,0.5,0.6,0.6,1l0.4,2.2c0.1,0.4-0.2,0.8-0.6,0.9
			s-0.8-0.2-0.9-0.6l-0.4-2.2c0-0.1,0-0.1-0.1-0.1l-1.2-1c-0.8,2.1-2.1,3.6-4.1,3.6c-2,0-3.3-1.6-4.1-3.6l-1.2,1
			c0,0-0.1,0.1-0.1,0.1l-0.4,2.2c-0.1,0.4-0.5,0.7-0.9,0.6c-0.4-0.1-0.7-0.5-0.6-0.9l0.4-2.2c0.1-0.4,0.3-0.7,0.6-1l1.7-1.4
			c-0.2-0.8-0.3-1.7-0.3-2.6l-1.3-0.8c-0.4-0.3-0.7-0.7-0.8-1.2l-0.4-2.6c-0.1-0.4,0.2-0.8,0.6-0.9s0.8,0.2,0.9,0.6l0.4,2.6
			c0,0.1,0.1,0.1,0.1,0.2L4.3,979L4.3,979z M3.3,1014.7c-3.1-3.1-3.1-8.2,0-11.3s8.2-3.1,11.3,0s3.1,8.2,0,11.3
			S6.5,1017.8,3.3,1014.7z M10.8,1010.8C10.8,1010.8,10.8,1010.8,10.8,1010.8c-1,1-2.6,1-3.5,0s-1-2.6,0-3.5s2.6-1,3.5,0
			c0,0,0,0,0,0h0c0.3,0.3,0.7,0.3,1,0.1c0.3-0.2,0.4-0.6,0.2-0.9c0,0,0-0.1-0.1-0.1c-0.1-0.1-0.1-0.1-0.2-0.2
			c-1.6-1.6-4.1-1.6-5.7,0s-1.6,4.1,0,5.7s4.1,1.6,5.7,0c0.1-0.1,0.1-0.1,0.2-0.2h0c0.2-0.3,0.2-0.7-0.1-1c0,0-0.1,0-0.1-0.1
			C11.5,1010.4,11,1010.5,10.8,1010.8z M9,1045c-4.4,0-8-3.6-8-8s3.6-8,8-8s8,3.6,8,8S13.4,1045,9,1045z M9.5,1040
			c0.3,0,0.5-0.2,0.5-0.5s-0.2-0.5-0.5-0.5H8v-1h1.5c1.8,0,3-1,3-2.5s-1.3-2.5-3-2.5h-2c-0.3,0-0.5,0.2-0.5,0.5v3.5l-0.5,0
			c0,0,0,0,0,0c-0.3,0-0.5,0.2-0.5,0.5c0,0.3,0.2,0.5,0.5,0.5l0.5,0v1l-0.5,0c0,0,0,0,0,0c-0.3,0-0.5,0.2-0.5,0.5
			c0,0.3,0.2,0.5,0.5,0.5l0.5,0v0.5c0,0,0,0,0,0c0,0.3,0.2,0.5,0.5,0.5c0.3,0,0.5-0.2,0.5-0.5v-0.5H9.5z M8,1034h1.5
			c1.5,0,2,0.8,2,1.5s-0.5,1.5-2,1.5H8V1034z M14.7,365.3c3.1,3.1,3.1,8.2,0,11.3c-3.1,3.1-8.2,3.1-11.3,0c-3.1-3.1-3.1-8.2,0-11.3
			C6.5,362.2,11.5,362.2,14.7,365.3L14.7,365.3z M6.5,373.5c1.4,1.4,3.6,1.4,4.9,0c1.4-1.4,1.4-3.6,0-4.9c-1.4-1.4-3.6-1.4-4.9,0
			C5.2,369.9,5.2,372.1,6.5,373.5z M13.5,373.4l1.5,0.8c1.1-2,1.1-4.4,0-6.4l-1.5,0.8C14.3,370.1,14.3,371.9,13.5,373.4z
			 M12.2,365.1c-2-1.1-4.4-1.1-6.4,0l0.8,1.5c1.5-0.8,3.3-0.8,4.8,0L12.2,365.1z M3.1,367.8c-1.1,2-1.1,4.4,0,6.4l1.5-0.8
			c-0.8-1.5-0.8-3.3,0-4.8L3.1,367.8L3.1,367.8z M5.8,376.9c2,1.1,4.4,1.1,6.4,0l-0.8-1.5c-1.5,0.8-3.3,0.8-4.8,0
			C6.6,375.5,5.8,376.9,5.8,376.9z M9,475c4.4,0,8,3.6,8,8s-3.6,8-8,8c-4.4,0-8-3.6-8-8S4.6,475,9,475z M15.8,483c0-3-2-5.6-4.7-6.5
			c-0.2,0.2-0.3,0.4-0.3,0.5c0.2,1.8,1.4,0.5,1.7,0.7c0.9,1-1.6,1.3-0.8,3c0.4,0.8,0.9,1.1,1.6,1.1c0.7,0,1,1.2,1,1.7
			c0.1,0.5,0,1.8-0.3,2.3c-0.2,0.5,0,1.1,0.3,1.3C15.3,486,15.8,484.6,15.8,483L15.8,483z M8.1,476.2c-2.5,0.3-4.6,2-5.4,4.3
			c0.5,0.1,1.7,0.1,1.9,0.5c0.2,0.4-0.5,0.9-0.5,1.8c0,1,1.3,1,1.3,1.7c0,0.7,0.3,1.6,0.3,1.9s1.1,1.6,1.4,1.6
			c0.4,0,0.1-1.5,0.1-1.9c0-0.3,0.2-1.1,0.2-1.3c0.3-1.3,1.6-1.1,1.9-1.9c0.9-2.4-2-2.6-2.3-2.7c-0.4-0.1-1.1-0.1-1.3-0.1
			c-0.3,0.1-0.8-0.3-0.8-0.7s1-1.1,1.3-1.6c0.3-0.5,0.6-0.4,1.1-0.9C7.5,476.7,7.9,476.6,8.1,476.2z M6.9,489.5
			c0.7,0.2,1.4,0.3,2.1,0.3c1.4,0,2.7-0.4,3.8-1.1c-0.3-0.5-1.4-0.6-2-0.6c-0.7,0.1-1.4,0.5-1.9,0.6c-0.5,0.1-0.8,0.3-1.2,0.3
			C7.3,489,7.3,489.3,6.9,489.5z"/>
	</g>
</g>
</svg>
